<svg xmlns="http://www.w3.org/2000/svg" width="720" height="720" viewBox="0 0 720 720" role="img" aria-labelledby="heroTitle">
  <title id="heroTitle">Placeholder product assortment</title>
  <rect width="720" height="720" rx="80" fill="#ffffff"/>
  <g transform="translate(124 128) rotate(-17 92 204)">
    <rect x="0" y="0" width="180" height="408" rx="24" fill="#6b1e70"/>
    <rect x="18" y="18" width="144" height="372" rx="18" fill="#f4eadf"/>
    <rect x="30" y="40" width="120" height="70" rx="16" fill="#d7ae52"/>
    <text x="90" y="84" font-family="Arial, sans-serif" font-size="28" font-weight="700" text-anchor="middle" fill="#4f291e">Aril</text>
    <rect x="36" y="140" width="108" height="168" rx="16" fill="#efe6db"/>
    <path d="M62 168c28-32 80-26 92 8 12 36-12 74-48 96-42-28-66-62-44-104Z" fill="#9eb857"/>
    <text x="90" y="350" font-family="Arial, sans-serif" font-size="26" font-weight="700" text-anchor="middle" fill="#4f291e">Powder</text>
  </g>
  <g transform="translate(248 84) rotate(8 92 224)">
    <rect x="0" y="0" width="196" height="456" rx="24" fill="#1e6a49"/>
    <rect x="18" y="18" width="160" height="420" rx="18" fill="#f7f1e7"/>
    <rect x="26" y="34" width="144" height="84" rx="16" fill="#d7ae52"/>
    <text x="98" y="82" font-family="Arial, sans-serif" font-size="28" font-weight="700" text-anchor="middle" fill="#1e6a49">Jackfruit</text>
    <rect x="38" y="148" width="120" height="192" rx="16" fill="#dce7b2"/>
    <circle cx="98" cy="244" r="54" fill="#9eb857"/>
    <circle cx="98" cy="244" r="18" fill="#d7ae52"/>
    <text x="98" y="390" font-family="Arial, sans-serif" font-size="24" font-weight="700" text-anchor="middle" fill="#4f291e">Seed Flour</text>
  </g>
  <g transform="translate(432 150) rotate(14 84 192)">
    <rect x="0" y="0" width="170" height="394" rx="24" fill="#9eb857"/>
    <rect x="16" y="16" width="138" height="362" rx="18" fill="#ffffff"/>
    <rect x="28" y="36" width="114" height="74" rx="16" fill="#1e6a49"/>
    <text x="85" y="80" font-family="Arial, sans-serif" font-size="24" font-weight="700" text-anchor="middle" fill="#ffffff">Greens</text>
    <path d="M48 148c22-18 44-30 64-24 28 8 42 38 38 68-8 42-44 76-86 106-22-42-28-84-16-118Z" fill="#dce7b2"/>
    <text x="85" y="340" font-family="Arial, sans-serif" font-size="22" font-weight="700" text-anchor="middle" fill="#4f291e">Banana</text>
    <text x="85" y="368" font-family="Arial, sans-serif" font-size="22" font-weight="700" text-anchor="middle" fill="#4f291e">Powder</text>
  </g>
</svg>
