<svg xmlns="http://www.w3.org/2000/svg" width="640" height="760" viewBox="0 0 640 760" role="img" aria-labelledby="founderTitle">
  <title id="founderTitle">Placeholder founder portrait</title>
  <rect width="640" height="760" rx="40" fill="#efe6db"/>
  <rect x="100" y="88" width="440" height="584" rx="34" fill="#d7e2f0"/>
  <ellipse cx="320" cy="236" rx="108" ry="124" fill="#cb986c"/>
  <path d="M224 226c20-96 180-112 206 0-26 30-60 44-102 42-44 4-80-10-104-42Z" fill="#4f291e"/>
  <rect x="188" y="356" width="264" height="244" rx="28" fill="#355b9c"/>
  <path d="M320 346c40 0 72-32 72-72v-14h-144v14c0 40 32 72 72 72Z" fill="#cb986c"/>
  <path d="M246 380h148l44 212H202l44-212Z" fill="#2f4f85"/>
  <path d="M304 392h32v206h-32Z" fill="#ffffff" opacity="0.8"/>
  <text x="320" y="710" font-family="Arial, sans-serif" font-size="34" font-weight="700" text-anchor="middle" fill="#4f291e">Founder Portrait</text>
</svg>
