<svg xmlns="http://www.w3.org/2000/svg" width="320" height="120" viewBox="0 0 320 120" role="img" aria-labelledby="logoTitle">
  <title id="logoTitle">Gaici placeholder logo</title>
  <rect width="320" height="120" rx="28" fill="#f7f1e7"/>
  <path d="M42 70c0-19 15-34 34-34h38c14 0 25 11 25 25 0 16-13 29-29 29H86" fill="none" stroke="#1e6a49" stroke-width="10" stroke-linecap="round"/>
  <path d="M120 40c10 0 18 8 18 18v28" fill="none" stroke="#1e6a49" stroke-width="10" stroke-linecap="round"/>
  <circle cx="179" cy="66" r="18" fill="none" stroke="#1e6a49" stroke-width="10"/>
  <path d="M218 40v48" stroke="#1e6a49" stroke-width="10" stroke-linecap="round"/>
  <path d="M248 40v48" stroke="#1e6a49" stroke-width="10" stroke-linecap="round"/>
  <path d="M280 40c-13 0-23 10-23 23s10 23 23 23" fill="none" stroke="#1e6a49" stroke-width="10" stroke-linecap="round"/>
  <path d="M78 84c26 8 54 8 80 0" fill="none" stroke="#d7ae52" stroke-width="10" stroke-linecap="round"/>
  <path d="M252 32c12 1 22-8 24-20-12-2-23 7-24 20Z" fill="#9eb857"/>
  <path d="M252 32c7 7 18 10 28 7-5-10-15-16-28-7Z" fill="#d7ae52"/>
</svg>
